HIERARCHY
ROOT Hips
{
	OFFSET 0.000000 0.000000 0.000000
	CHANNELS 6 Xposition Yposition Zposition Xrotation Yrotation Zrotation
	JOINT LeftUpLeg_virtual
	{
		OFFSET 0.000000 0.000000 0.000000
		CHANNELS 3 Xrotation Yrotation Zrotation
		JOINT LeftUpLeg
		{
			OFFSET 15.427100 -6.655098 0.678600
			CHANNELS 3 Xrotation Yrotation Zrotation
			JOINT LeftLeg
			{
				OFFSET 4.081073 -39.591068 13.024000
				CHANNELS 3 Xrotation Yrotation Zrotation
				JOINT LeftFoot
				{
					OFFSET -4.081074 -37.707932 -15.979700
					CHANNELS 3 Xrotation Yrotation Zrotation
					JOINT LeftToeBase
					{
						OFFSET 5.346399 -15.068900 20.645000
						CHANNELS 3 Xrotation Yrotation Zrotation
						JOINT LeftToe_End
						{
							OFFSET 2.754700 0.931300 11.300900
							CHANNELS 3 Xrotation Yrotation Zrotation
							End Site
							{
								OFFSET 0 0 0
							}
						}
					}
				}
			}
		}
	}
	JOINT RightUpLeg_virtual
	{
		OFFSET 0.000000 0.000000 0.000000
		CHANNELS 3 Xrotation Yrotation Zrotation
		JOINT RightUpLeg
		{
			OFFSET -15.569500 -6.655098 0.678600
			CHANNELS 3 Xrotation Yrotation Zrotation
			JOINT RightLeg
			{
				OFFSET -4.081825 -39.591045 13.023800
				CHANNELS 3 Xrotation Yrotation Zrotation
				JOINT RightFoot
				{
					OFFSET 4.081824 -37.707954 -15.979600
					CHANNELS 3 Xrotation Yrotation Zrotation
					JOINT RightToeBase
					{
						OFFSET -5.346400 -15.068900 20.645000
						CHANNELS 3 Xrotation Yrotation Zrotation
						JOINT RightToe_End
						{
							OFFSET -2.754700 0.931300 11.300900
							CHANNELS 3 Xrotation Yrotation Zrotation
							End Site
							{
								OFFSET 0 0 0
							}
						}
					}
				}
			}
		}
	}
	JOINT Spine_virtual
	{
		OFFSET 0.000000 0.000000 0.000000
		CHANNELS 3 Xrotation Yrotation Zrotation
		JOINT Spine
		{
			OFFSET -0.279200 12.230698 -2.892100
			CHANNELS 3 Xrotation Yrotation Zrotation
			JOINT Spine1
			{
				OFFSET -0.232667 10.192268 -1.242267
				CHANNELS 3 Xrotation Yrotation Zrotation
				JOINT Spine1_split
				{
					OFFSET -0.232667 10.192268 -1.242267
					CHANNELS 3 Xrotation Yrotation Zrotation
					JOINT Spine2
					{
						OFFSET -0.232667 10.192268 -1.242267
						CHANNELS 3 Xrotation Yrotation Zrotation
						JOINT Neck_virtual
						{
							OFFSET 0.000000 0.000000 0.000000
							CHANNELS 3 Xrotation Yrotation Zrotation
							JOINT Neck
							{
								OFFSET -0.418800 17.814194 8.416900
								CHANNELS 3 Xrotation Yrotation Zrotation
								JOINT Head
								{
									OFFSET 0.000000 7.031097 3.806800
									CHANNELS 3 Xrotation Yrotation Zrotation
									JOINT HeadTop_End
									{
										OFFSET 0.000000 24.646606 12.978600
										CHANNELS 3 Xrotation Yrotation Zrotation
										End Site
										{
											OFFSET 0 0 0
										}
									}
								}
							}
						}
						JOINT LeftShoulder_virtual
						{
							OFFSET 0.000000 0.000000 0.000000
							CHANNELS 3 Xrotation Yrotation Zrotation
							JOINT LeftShoulder
							{
								OFFSET 8.476499 7.247704 -3.868750
								CHANNELS 3 Xrotation Yrotation Zrotation
								JOINT LeftShoulder_split
								{
									OFFSET 8.476499 7.247704 -3.868750
									CHANNELS 3 Xrotation Yrotation Zrotation
									JOINT LeftArm
									{
										OFFSET 9.308998 -2.777710 0.208600
										CHANNELS 3 Xrotation Yrotation Zrotation
										JOINT LeftForeArm
										{
											OFFSET 29.972298 0.000000 0.000000
											CHANNELS 3 Xrotation Yrotation Zrotation
											JOINT LeftHand
											{
												OFFSET 26.026505 0.000000 0.000000
												CHANNELS 3 Xrotation Yrotation Zrotation
												End Site
												{
													OFFSET 0 0 0
												}
											}
										}
									}
								}
							}
						}
						JOINT RightShoulder_virtual
						{
							OFFSET 0.000000 0.000000 0.000000
							CHANNELS 3 Xrotation Yrotation Zrotation
							JOINT RightShoulder
							{
								OFFSET -7.570500 7.247704 -3.868750
								CHANNELS 3 Xrotation Yrotation Zrotation
								JOINT RightShoulder_split
								{
									OFFSET -7.570500 7.247704 -3.868750
									CHANNELS 3 Xrotation Yrotation Zrotation
									JOINT RightArm
									{
										OFFSET -9.308998 -2.777710 0.208500
										CHANNELS 3 Xrotation Yrotation Zrotation
										JOINT RightForeArm
										{
											OFFSET -29.972300 0.000000 0.000000
											CHANNELS 3 Xrotation Yrotation Zrotation
											JOINT RightHand
											{
												OFFSET -26.026505 0.000000 0.000000
												CHANNELS 3 Xrotation Yrotation Zrotation
												End Site
												{
													OFFSET 0 0 0
												}
											}
										}
									}
								}
							}
						}
					}
				}
			}
		}
	}
}
MOTION
Frames: 10
Frame Time: 0.03333333
1.476348 136.868317 17.792019 0.000000 0.000000 0.000000 5.812257 -39.877923 4.279707 -77.244481 -16.232636 22.866579 75.050767 0.348323 1.864840 2.274503 3.385166 -1.917639 -9.663858 0.951578 0.703919 0.000000 0.000000 0.000000 5.625265 -39.698665 3.571121 -111.044649 -38.106623 -0.342361 100.730721 15.646949 -7.228749 38.654175 4.612262 22.398149 8.608016 2.381506 -2.844208 0.000000 0.000000 0.000000 4.447624 -38.954789 2.092856 30.739420 -5.436902 -8.059172 12.109933 1.143536 -3.307486 0.457382 -0.471707 1.302551 0.000000 0.000000 0.000000 11.959624 1.328063 -2.445267 -7.458869 19.062716 -13.214452 -25.490954 12.054225 3.848355 0.000000 0.000000 0.000000 13.406488 1.511730 -2.861168 12.070868 -9.865854 -0.541849 0.253190 -2.306081 -5.310072 -53.635905 3.594539 2.660924 47.193523 -18.430864 30.830753 0.000000 0.000000 0.000000 13.882010 1.566620 -2.632491 17.583238 21.564077 -5.177014 1.633264 6.433206 3.061598 -34.866558 -16.094506 0.841345 -50.273198 47.753691 40.268371 0.000000 0.000000 0.000000 
1.471992 136.901825 17.809265 0.000000 0.000000 0.000000 5.802412 -39.697701 4.255953 -77.321908 -16.170850 22.901284 75.036984 0.374631 1.801748 2.449755 3.412834 -1.882070 -9.665075 0.958615 0.669192 0.000000 0.000000 0.000000 5.621409 -39.616436 3.548505 -111.109891 -38.085913 -0.277828 100.734444 15.642416 -7.330647 38.640409 4.709075 22.410307 8.627466 2.387509 -2.858076 0.000000 0.000000 0.000000 4.461564 -38.859320 2.044830 30.663076 -5.505436 -8.060859 12.144443 1.104502 -3.306005 0.451771 -0.477702 1.180973 0.000000 0.000000 0.000000 11.987439 1.312489 -2.447268 -7.578654 19.113531 -13.174277 -25.487013 12.008701 3.935359 0.000000 0.000000 0.000000 13.433610 1.488667 -2.807229 12.254111 -10.189696 0.279853 0.126201 -2.199054 -4.867628 -54.970155 2.811556 3.056956 47.235963 -18.663559 30.962672 0.000000 0.000000 0.000000 13.911637 1.516323 -2.625603 17.677662 21.267664 -5.648814 1.800182 6.507116 2.749635 -35.393559 -16.069487 0.542968 -50.380766 48.108011 40.303833 0.000000 0.000000 0.000000 
1.534711 136.923401 17.782112 0.000000 0.000000 0.000000 5.763017 -39.316638 4.137379 -77.511753 -16.192259 22.820359 75.031192 0.378827 1.789282 2.735526 3.345596 -1.697064 -9.640640 0.958336 0.668463 0.000000 0.000000 0.000000 5.582652 -39.312373 3.421675 -111.267511 -38.075231 -0.186002 100.822485 15.625967 -7.465443 38.787319 4.881127 22.523985 8.528730 2.381771 -2.822611 0.000000 0.000000 0.000000 4.522744 -38.641300 1.978746 30.568034 -5.587863 -8.110921 12.166449 1.067682 -3.323919 0.367782 -0.475061 1.136208 0.000000 0.000000 0.000000 12.048272 1.312088 -2.462309 -7.640462 19.101133 -13.095895 -25.593289 11.908493 4.064933 0.000000 0.000000 0.000000 13.470886 1.488239 -2.758285 12.548601 -10.657877 1.682324 0.329120 -1.797434 -4.704533 -56.548874 1.327313 3.809415 47.335267 -18.971363 31.082900 0.000000 0.000000 0.000000 13.933255 1.476051 -2.639930 17.975791 20.893164 -6.649668 1.943012 6.508933 2.739136 -36.417035 -16.226422 -0.117043 -51.248409 48.892898 41.189493 0.000000 0.000000 0.000000 
1.642229 136.926605 17.748346 0.000000 0.000000 0.000000 5.695585 -38.831306 3.939175 -77.796333 -16.305190 22.640889 75.049203 0.345037 1.832403 3.077539 3.189024 -1.412959 -9.599871 0.950976 0.700480 0.000000 0.000000 0.000000 5.512014 -38.878482 3.212732 -111.510222 -38.083998 -0.102868 101.010035 15.563996 -7.614100 39.025785 5.040013 22.693843 8.398689 2.363366 -2.734664 0.000000 0.000000 0.000000 4.616749 -38.350775 1.897036 30.462968 -5.670128 -8.197392 12.191243 1.039201 -3.352042 0.261210 -0.499965 1.144698 0.000000 0.000000 0.000000 12.156109 1.327394 -2.488676 -7.637341 19.035005 -12.997574 -25.751316 11.766280 4.205668 0.000000 0.000000 0.000000 13.521854 1.504660 -2.728868 12.933961 -11.241091 3.439560 0.675799 -1.356882 -4.845148 -58.034656 -0.574515 4.513035 47.395383 -19.090683 31.070862 0.000000 0.000000 0.000000 13.958008 1.456749 -2.671484 18.420689 20.528262 -8.010643 2.050250 6.474531 2.886525 -37.688164 -16.437928 -0.939203 -52.575798 49.847868 42.610757 0.000000 0.000000 0.000000 
1.766742 136.916504 17.710201 0.000000 0.000000 0.000000 5.615157 -38.313994 3.689240 -78.137590 -16.498298 22.399359 75.101960 0.280645 1.921385 3.425865 2.963794 -1.090625 -9.576973 0.941416 0.752091 0.000000 0.000000 0.000000 5.409880 -38.405167 2.959229 -111.853186 -38.097566 -0.071497 101.321697 15.443254 -7.730061 39.292091 5.119491 22.864690 8.390420 2.334553 -2.600822 0.000000 0.000000 0.000000 4.708974 -38.036934 1.792182 30.369196 -5.736803 -8.299021 12.236886 1.019210 -3.384974 0.174367 -0.564180 1.152094 0.000000 0.000000 0.000000 12.299554 1.346707 -2.517857 -7.570053 18.926195 -12.904309 -25.886518 11.601234 4.326749 0.000000 0.000000 0.000000 13.601374 1.523990 -2.722452 13.386739 -11.884268 5.340237 0.993319 -1.083594 -5.114401 -59.253708 -2.757345 4.854522 47.438519 -18.946403 30.983364 0.000000 0.000000 0.000000 13.998642 1.456066 -2.706594 18.941243 20.286828 -9.505337 2.095171 6.425166 3.016351 -39.000384 -16.468018 -1.722141 -53.990197 50.715114 44.160858 0.000000 0.000000 0.000000 
1.881900 136.915222 17.660847 0.000000 0.000000 0.000000 5.531164 -37.843770 3.416422 -78.510279 -16.746314 22.149086 75.213859 0.210778 2.028453 3.779096 2.712200 -0.788918 -9.554684 0.936322 0.794153 0.000000 0.000000 0.000000 5.296002 -38.001308 2.694315 -112.278816 -38.107408 -0.106367 101.753139 15.302749 -7.788936 39.577965 5.130051 23.031178 8.506645 2.303558 -2.442601 0.000000 0.000000 0.000000 4.775358 -37.784347 1.661518 30.306929 -5.775579 -8.395256 12.315104 1.002705 -3.416750 0.235900 -0.568845 1.175820 0.000000 0.000000 0.000000 12.449096 1.357229 -2.544727 -7.461060 18.813319 -12.828795 -25.971801 11.430349 4.420795 0.000000 0.000000 0.000000 13.713158 1.531242 -2.741287 13.860400 -12.540499 7.123438 1.150246 -1.096225 -5.453079 -60.157117 -4.905034 4.749066 47.505882 -18.616372 30.900373 0.000000 0.000000 0.000000 14.074955 1.463387 -2.747322 19.489262 20.252595 -10.965436 2.024255 6.355897 3.119065 -40.053165 -16.123433 -2.183842 -55.080336 51.320320 45.376372 0.000000 0.000000 0.000000 
1.961955 136.921707 17.619194 0.000000 0.000000 0.000000 5.439383 -37.515586 3.143913 -78.900556 -17.024682 21.938682 75.389360 0.161898 2.136497 4.155168 2.463893 -0.548838 -9.509861 0.939770 0.805129 0.000000 0.000000 0.000000 5.187764 -37.716848 2.435267 -112.734465 -38.117339 -0.173707 102.240419 15.207365 -7.807664 39.878073 5.143418 23.244756 8.610761 2.279779 -2.295023 0.000000 0.000000 0.000000 4.811379 -37.604126 1.509688 30.299412 -5.779566 -8.468925 12.433877 0.989539 -3.441483 0.374419 -0.508213 1.177440 0.000000 0.000000 0.000000 12.563332 1.352899 -2.570137 -7.344211 18.713755 -12.793375 -25.991605 11.268701 4.489020 0.000000 0.000000 0.000000 13.845009 1.518303 -2.782032 14.310674 -13.162535 8.618585 1.290788 -1.261843 -5.551369 -60.953120 -6.831142 4.197987 47.607303 -18.231199 30.879610 0.000000 0.000000 0.000000 14.195201 1.473639 -2.789861 20.006099 20.399390 -12.241895 1.910596 6.270518 3.160709 -40.732052 -15.211303 -2.198608 -55.664529 51.656359 46.024028 0.000000 0.000000 0.000000 
1.992523 136.933167 17.584202 0.000000 0.000000 0.000000 5.352817 -37.362856 2.905569 -79.281448 -17.314827 21.800156 75.622932 0.156571 2.235592 4.540843 2.240879 -0.390456 -9.439222 0.954330 0.776226 0.000000 0.000000 0.000000 5.081846 -37.564101 2.205134 -113.150266 -38.152798 -0.220517 102.683117 15.190192 -7.818991 40.161676 5.196920 23.516046 8.607529 2.270293 -2.190702 0.000000 0.000000 0.000000 4.792148 -37.521135 1.336915 30.374387 -5.765610 -8.513568 12.582006 0.971101 -3.460429 0.475695 -0.407414 1.173547 0.000000 0.000000 0.000000 12.624550 1.333700 -2.587355 -7.237850 18.643645 -12.794149 -25.928988 11.181481 4.553258 0.000000 0.000000 0.000000 13.974958 1.487658 -2.827635 14.691957 -13.716099 9.715213 1.315426 -1.453276 -5.419181 -61.694660 -8.444861 3.345391 47.755136 -17.967854 30.971715 0.000000 0.000000 0.000000 14.335493 1.473514 -2.824286 20.432518 20.691010 -13.241106 1.812661 6.219064 3.193560 -41.045694 -13.725103 -1.694313 -55.578687 51.696254 45.907245 0.000000 0.000000 0.000000 
1.979427 136.941147 17.576319 0.000000 0.000000 0.000000 5.264982 -37.386007 2.718139 -79.620854 -17.590495 21.753418 75.907280 0.197937 2.332675 4.901105 2.046509 -0.342933 -9.358665 0.976373 0.717363 0.000000 0.000000 0.000000 4.979852 -37.548668 2.015494 -113.447974 -38.244073 -0.218054 102.983010 15.230132 -7.824701 40.389606 5.245466 23.786632 8.544127 2.275199 -2.135852 0.000000 0.000000 0.000000 4.707953 -37.563998 1.151193 30.534098 -5.752679 -8.540040 12.752229 0.945318 -3.479563 0.521550 -0.305518 1.168620 0.000000 0.000000 0.000000 12.651839 1.305244 -2.602999 -7.144313 18.609508 -12.809706 -25.799119 11.149918 4.638712 0.000000 0.000000 0.000000 14.091713 1.444230 -2.872064 14.963695 -14.213998 10.333790 1.203320 -1.653646 -5.229441 -62.284830 -9.620591 2.382755 47.911257 -17.936382 31.134591 0.000000 0.000000 0.000000 14.461665 1.457588 -2.854175 20.734009 21.108093 -13.893628 1.733385 6.145691 3.199050 -41.105950 -11.810817 -0.700974 -54.767039 51.418245 44.967411 0.000000 0.000000 0.000000 
1.939464 136.952240 17.592859 0.000000 0.000000 0.000000 5.169970 -37.573752 2.579180 -79.882990 -17.834285 21.790359 76.228681 0.262668 2.444329 5.189239 1.860505 -0.412298 -9.329240 0.997262 0.655926 0.000000 0.000000 0.000000 4.866107 -37.647169 1.864891 -113.584536 -38.402281 -0.164264 103.104240 15.295215 -7.811100 40.518571 5.229932 23.983181 8.510612 2.288282 -2.117243 0.000000 0.000000 0.000000 4.578403 -37.719689 0.972262 30.762537 -5.763277 -8.556015 12.925419 0.911289 -3.500943 0.484531 -0.271850 1.170140 0.000000 0.000000 0.000000 12.679339 1.272197 -2.626554 -7.070634 18.611586 -12.825218 -25.646828 11.083458 4.756148 0.000000 0.000000 0.000000 14.200441 1.392926 -2.918062 15.115817 -14.682277 10.453967 1.061781 -1.831608 -4.988152 -62.651467 -10.457486 1.353146 48.012712 -18.010246 31.247829 0.000000 0.000000 0.000000 14.563876 1.431538 -2.883127 20.886993 21.617528 -14.150082 1.700427 6.079533 3.199423 -41.064395 -9.587420 0.557902 -53.368844 50.824790 43.346228 0.000000 0.000000 0.000000 
